<svg xmlns="http://www.w3.org/2000/svg" viewBox="0 0 128 128" width="128" height="128">
  <defs>
    <linearGradient id="grad1" x1="0%" y1="0%" x2="100%" y2="100%">
      <stop offset="0%" stop-color="#4F46E5" />
      <stop offset="100%" stop-color="#06B6D4" />
    </linearGradient>
  </defs>
  <!-- Database Stack representation -->
  <!-- Top Disk -->
  <path d="M64 16c19.89 0 36 6.27 36 14s-16.11 14-36 14-36-6.27-36-14 16.11-14 36-14z" fill="url(#grad1)" />
  
  <!-- Middle Disk -->
  <path d="M28 44v18c0 7.73 16.11 14 36 14s36-6.27 36-14V44c-4.94 4.86-18.78 8-36 8s-31.06-3.14-36-8z" fill="url(#grad1)" opacity="0.85" />
  
  <!-- Bottom Disk -->
  <path d="M28 76v18c0 7.73 16.11 14 36 14s36-6.27 36-14V76c-4.94 4.86-18.78 8-36 8s-31.06-3.14-36-8z" fill="url(#grad1)" opacity="0.7" />
</svg>
